<?xml version="1.0" encoding="UTF-8"?>
<svg
  xmlns="http://www.w3.org/2000/svg"
  xmlns:xlink="http://www.w3.org/1999/xlink"
  width="19.757936mm"
  height="13.628296mm"
  viewBox="0 0 700.08435 482.89237">
  <path
     id="path1"
     transform="translate(0,-569.46988)"
     style="fill:#000"
     d="m 117.51293,1051.6318 c -12.14837,-2.9002 -29.728148,-18.1522 -49.221868,-42.7042 c -39.570999,-49.83893 -61.0574994,-105.73952 -67.38493937,-175.31253 c -1.21782,-13.3906 -1.20559,-47.2689 0.0216,-59.6663 c 5.78590997,-58.45296 26.23995037,-108.79162 63.77079937,-156.94389 c 11.49299,-14.74558 30.54062,-34.06267 39.663438,-40.22459 c 12.90812,-8.71862 21.03329,-9.42362 28.83032,-2.50149 c 3.18001,2.82319 3.91138,4.13656 4.31868,7.75537 c 0.7669,6.81375 -2.72585,12.13801 -18.96746,28.91356 c -22.696898,23.44307 -33.167868,36.49307 -44.766288,55.79234 c -26.338069,43.82543 -37.608569,89.91434 -35.992979,147.1875 c 0.86072,30.51293 4.12574,53.0042 11.32601,78.01991 c 6.48504,22.53075 14.26864,40.69688 25.924939,60.50619 c 11.70369,19.8898 21.53849,32.4739 41.204948,52.72393 c 17.25351,17.7655 21.53909,23.9358 21.53909,31.0118 c 0,7.0391 -4.96843,13.4053 -11.98224,15.3532 c -3.87451,1.0761 -4.13811,1.0789 -8.284,0.089 z m 455.44089,0.2665 c -3.6719,-0.7795 -10.2381,-7.8414 -10.9785,-11.8072 c -1.1931,-6.3904 2.6087,-12.0821 20.332,-30.4391 c 8.7214,-9.0333 19.4526,-20.90733 23.8469,-26.38683 c 32.1524,-40.09154 50.0156,-84.70127 54.7815,-136.80559 c 1.4691,-16.06232 0.7096,-57.4481 -1.3391,-72.96716 c -4.2915,-32.50699 -12.2125,-59.101 -25.932,-87.06485 c -13.128,-26.75819 -26.7099,-45.73656 -49.6485,-69.375 c -15.4037,-15.87371 -19.9446,-21.67017 -21.493,-27.43577 c -1.5177,-5.65161 -0.4267,-9.8484 3.8122,-14.66398 c 5.8143,-6.60538 12.4561,-7.1946 22.8501,-2.02712 c 12.5814,6.25493 28.8861,22.58937 47.8125,47.89962 c 38.0781,50.92197 57.7171,106.94211 62.4372,178.10225 c 4.0104,60.46144 -10.6568,121.66332 -41.3038,172.3482 c -21.1547,34.98623 -53.4295,70.83673 -70.6155,78.43883 c -4.4918,1.987 -10.9367,2.9534 -14.562,2.1837 z m -380.08337,-36.8677 c -10.28745,-3.1184 -16.25136,-13.4004 -13.77065,-23.74113 c 1.53405,-6.3947 7.95351,-12.9693 14.1986,-14.5418 c 6.29118,-1.5842 331.73282,-1.5842 338.02402,0 c 6.4375,1.6209 12.762,8.2164 14.1687,14.7756 c 1.8436,8.59633 -2.0197,17.39503 -9.5253,21.69413 l -3.9679,2.2727 l -168.28125,0.159 c -92.55469,0.088 -169.43548,-0.1909 -170.84622,-0.6185 z m 128.18997,-79.10931 c -31.25226,-11.36715 -57.25414,-33.51988 -70.56464,-60.11872 c -7.39978,-14.78724 -11.69506,-32.69699 -11.69168,-48.75 c 0.005,-21.70289 8.49132,-42.38356 34.34641,-83.69612 c 19.25748,-30.77058 22.53856,-36.37804 28.2009,-48.19613 c 7.53515,-15.72687 10.01962,-25.06764 10.17751,-38.264 c 0.15089,-12.61133 -1.7391,-20.09344 -7.5478,-29.88024 c -4.12329,-6.94714 -13.3994,-17.40446 -17.16656,-19.35253 c -6.13981,-3.17502 -7.41241,-7.48767 -3.05249,-10.3444 c 6.89544,-4.51807 25.73535,-1.65272 43.04416,6.54654 c 19.58504,9.27752 34.01993,22.59896 43.41986,40.07061 c 7.2448,13.46592 10.1658,23.78505 15.07964,53.27252 c 5.45287,32.72211 10.85838,43.10388 21.78902,41.84779 c 5.79215,-0.66561 9.40698,-2.86376 11.84605,-7.20349 c 3.88524,-6.91287 2.21986,-16.37519 -5.638,-32.03379 c -6.42005,-12.79345 -6.0227,-16.65931 1.50762,-14.66788 c 3.90047,1.03149 16.5567,11.36919 25.31937,20.68104 c 21.92392,23.29795 32.83524,44.46488 38.0824,73.87633 c 2.75216,15.42644 2.98126,41.00657 0.48698,54.375 c -3.14675,16.86545 -9.52427,32.78449 -18.58816,46.39825 c -10.10669,15.18002 -31.19068,34.38621 -46.51897,42.37585 c -6.92209,3.60805 -9.32469,3.82678 -12.71769,1.15785 c -4.22027,-3.31967 -3.32896,-5.62767 6.0003,-15.53749 c 14.01697,-14.88926 21.17338,-25.47392 25.32527,-37.45728 c 6.40578,-18.48865 3.21723,-44.26491 -7.50796,-60.69426 c -4.44225,-6.80483 -10.95335,-12.80542 -13.89487,-12.80542 c -1.6103,0 -1.34313,2.12472 1.64246,13.06159 c 1.04617,3.83232 1.90212,8.51603 1.90212,10.40824 c 0,10.00778 -14.12604,17.26255 -26.56914,13.64525 c -10.11201,-2.93965 -14.56941,-12.11029 -13.23012,-27.21961 c 0.41387,-4.66907 0.78411,-13.15351 0.82275,-18.8543 c 0.0682,-10.05201 -0.0289,-10.56052 -3.21099,-16.83594 c -6.2022,-12.2312 -20.54678,-24.83023 -28.27035,-24.83023 c -3.33075,0 -3.60465,0.20129 -3.60465,2.64908 c 0,1.64378 0.92404,3.51158 2.43498,4.92188 c 8.00106,7.46811 9.50696,22.7712 3.57025,36.28131 c -3.66922,8.35 -7.80677,13.07915 -21.93727,25.07385 c -18.59248,15.78227 -24.58362,23.29724 -28.29903,35.49682 c -1.71871,5.64339 -1.89614,7.93993 -1.4124,18.28125 c 0.81216,17.36174 4.35055,28.87034 12.62068,41.04864 c 6.34961,9.35021 13.78457,15.28248 23.88216,19.05527 c 4.85612,1.81441 5.39063,2.28304 5.39063,4.72627 c 0,2.83211 -2.15357,4.69364 -5.329,4.60634 c -0.93624,-0.026 -5.49913,-1.42784 -10.13975,-3.11574 z"/>
</svg>
