<?xml version="1.0" encoding="utf-8"?>
<!-- Generator: Adobe Illustrator 15.1.0, SVG Export Plug-In . SVG Version: 6.00 Build 0)  -->
<!DOCTYPE svg PUBLIC "-//W3C//DTD SVG 1.1//EN" "http://www.w3.org/Graphics/SVG/1.1/DTD/svg11.dtd">
<svg version="1.1"
	 id="svg2" sodipodi:docname="meetup-new-logo-vector.svg" inkscape:version="0.91 r13725" xmlns:inkscape="http://www.inkscape.org/namespaces/inkscape" xmlns:sodipodi="http://sodipodi.sourceforge.net/DTD/sodipodi-0.dtd" xmlns:rdf="http://www.w3.org/1999/02/22-rdf-syntax-ns#" xmlns:svg="http://www.w3.org/2000/svg" xmlns:cc="http://creativecommons.org/ns#" xmlns:dc="http://purl.org/dc/elements/1.1/"
	 xmlns="http://www.w3.org/2000/svg" xmlns:xlink="http://www.w3.org/1999/xlink" x="0px" y="0px" width="400px" height="400px"
	 viewBox="0 0 400 400" enable-background="new 0 0 400 400" xml:space="preserve">
<sodipodi:namedview  pagecolor="#ffffff" bordercolor="#666666" id="base" inkscape:cx="359.01891" borderopacity="1.0" inkscape:pageopacity="0.0" inkscape:window-y="34" inkscape:pageshadow="2" inkscape:zoom="0.35" inkscape:cy="410.63123" inkscape:document-units="px" borderlayer="true" inkscape:current-layer="layer1" fit-margin-left="0" showgrid="false" inkscape:showpageshadow="false" fit-margin-top="0" fit-margin-right="0" fit-margin-bottom="0" inkscape:window-width="1276" inkscape:window-height="764" inkscape:window-x="0" inkscape:window-maximized="0">
	</sodipodi:namedview>
<g id="layer1" transform="translate(65.714302,-703.79077)" inkscape:label="Livello 1" inkscape:groupmode="layer">
	<path id="path84774" fill="#3399FF" d="M62.542,740.202c-3.986,0-7.218,3.232-7.217,7.219c0,3.985,3.231,7.217,7.217,7.217
		c3.986,0,7.218-3.23,7.219-7.217s-3.231-7.219-7.217-7.219C62.543,740.202,62.543,740.202,62.542,740.202z M154.82,749.275
		c-7.682,0-13.909,6.227-13.909,13.909l0,0c0,7.682,6.227,13.91,13.909,13.91l0,0c7.683,0,13.909-6.227,13.909-13.909c0,0,0,0,0,0
		C168.729,755.503,162.503,749.275,154.82,749.275C154.821,749.275,154.821,749.275,154.82,749.275z M111.726,781.512
		c-13.952,0.033-24.537,2.971-36.717,10.188c-11.102,6.578-23.854,20.971-28.511,32.175c-1.609,3.873-1.718,3.956-6.3,4.827
		c-15.044,2.859-29.45,15.994-34.509,31.467c-1.626,4.972-1.96,7.577-1.95,15.2c0.013,9.696,0.958,13.905,4.892,21.763l1.884,3.761
		l-2.82,3.039c-19.01,20.479-18.492,51.811,1.183,71.486c6.681,6.681,15.579,11.816,23.578,13.605l4.409,0.986l0.469,3.68
		c3.118,24.438,18.829,42.956,41.483,48.896c7.342,1.925,19.708,2.056,26.859,0.284c6.379-1.58,13.74-4.868,18.05-8.061l3.2-2.371
		l4.4,2.999c5.651,3.852,11.421,6.104,18.418,7.19c18.28,2.836,37.747-8.936,43.949-26.575l1.504-4.282l7.648-0.555
		c8.73-0.634,18.555-3.652,25.89-7.953c7.43-4.357,18.443-15.938,22.341-23.492c5.574-10.807,7.024-16.76,7.016-28.801
		c-0.01-11.97-1.178-17.296-5.91-26.954l-3.016-6.155l2.997-2.926c1.648-1.609,3.977-4.727,5.174-6.926
		c9.828-18.058,2.544-39.841-16.244-48.575l-4.167-1.938l-0.016-4.062c-0.059-14.859-5.562-29.975-15.244-41.861
		c-7.336-9.006-21.023-17.636-32.695-20.612c-10.541-2.689-25.51-2.343-34.399,0.793c-2.797,0.987-3.244,0.869-10.788-2.836
		C132.877,783.561,123.884,781.484,111.726,781.512z M31.37,793.066c-5.895,0-10.674,4.779-10.673,10.674c0,0,0,0.001,0,0.001
		c0,5.895,4.778,10.673,10.673,10.673c5.895,0,10.673-4.779,10.673-10.673C42.044,797.846,37.266,793.067,31.37,793.066
		C31.371,793.066,31.371,793.066,31.37,793.066z M260.5,827.235c-6.389,0-11.567,5.18-11.567,11.569
		c0.001,6.388,5.18,11.566,11.567,11.567c6.389,0,11.568-5.178,11.569-11.567c0-6.389-5.179-11.568-11.567-11.569
		C260.501,827.235,260.501,827.235,260.5,827.235z M143.364,840.964c4.532-0.105,7.897,1.475,12.893,5.658
		c3.116,2.611,5.949,4.747,6.295,4.747s2.521-0.982,4.836-2.183c3.613-1.875,5.178-2.186,11.073-2.2
		c9.196-0.022,13.978,1.453,18.114,5.589c6.422,6.422,7.676,16.212,3.623,28.307c-1.279,3.821-5.782,14.821-10.006,24.443
		c-4.224,9.623-8.808,20.771-10.186,24.771c-2.5,7.254-3.737,16.143-2.78,19.956c0.854,3.405,4.613,5.31,13.625,6.903
		c8.912,1.576,11.692,2.858,13.151,6.062c2.471,5.422-0.381,11.527-6.128,13.123c-4.08,1.134-17.132,0.923-23.094-0.373
		c-7.323-1.592-11.753-3.832-16.556-8.375c-7.857-7.431-11.01-18.48-8.129-28.481c0.752-2.608,6.34-15.183,12.418-27.942
		s11.408-24.514,11.845-26.12c1.146-4.212-0.225-6.608-3.958-6.922c-2.48-0.208-3.221,0.161-5.254,2.628
		c-1.303,1.579-9.825,17.597-18.941,35.593c-18.276,36.082-19.45,37.809-26.411,38.852c-8.213,1.232-13.912-2.102-14.641-8.565
		c-0.373-3.311,0.535-6.055,8.997-27.173c10.529-26.278,11.453-30.085,8.217-33.847c-1.258-1.462-2.71-2.246-4.163-2.246
		c-5.118,0-5.6,0.905-20.88,39.12c-7.92,19.809-15.376,37.486-16.569,39.283c-4.669,7.035-12.082,9.919-21.178,8.237
		c-12.38-2.288-19.398-10.192-19.436-21.889c-0.015-4.507,1.029-8.932,6.036-25.601c8.337-27.755,15.875-50.062,19.648-58.151
		c3.748-8.032,8.014-12.749,14.699-16.251c4.337-2.272,5.495-2.516,12-2.531c7.072-0.016,7.356,0.059,16,4.233
		c10.68,5.157,11.714,5.094,18.875-1.133c6.024-5.238,8.216-6.489,12.605-7.19C141.211,841.103,142.318,840.989,143.364,840.964z
		 M299.401,871.4c-3.492,0-6.324,2.831-6.324,6.323c-0.001,3.493,2.831,6.325,6.324,6.325l0,0c3.493,0,6.325-2.832,6.325-6.325
		c0,0,0,0,0,0C305.725,874.231,302.894,871.4,299.401,871.4z M-23.222,882.725c-7.695,0-13.933,6.238-13.933,13.933l0,0
		c0,7.695,6.238,13.933,13.933,13.933l0,0c7.695,0,13.933-6.237,13.933-13.933l0,0C-9.289,888.963-15.527,882.725-23.222,882.725
		L-23.222,882.725z M281.939,912.963c-4.862,0-8.804,3.941-8.804,8.803c0,4.862,3.941,8.804,8.804,8.804
		c4.861,0,8.803-3.941,8.803-8.804C290.742,916.904,286.8,912.963,281.939,912.963z M20.82,1000.136
		c-3.513,0-6.361,2.848-6.362,6.36c0.003,3.093,2.229,5.734,5.275,6.263c0.126,0.023,0.253,0.043,0.38,0.058
		c0.048,0.005,0.096,0.011,0.144,0.015c0.151,0.014,0.301,0.02,0.452,0.021c0.038,0.002,0.075,0.004,0.112,0.006
		c0.034,0,0.068-0.002,0.102-0.003c0.031-0.001,0.062-0.001,0.092-0.003c3.436-0.104,6.167-2.919,6.169-6.356
		c-0.002-1.923-0.874-3.74-2.371-4.946c-0.26-0.266-0.515-0.488-0.744-0.611c-1.067-0.57-2.129-0.809-3.137-0.797
		C20.894,1000.14,20.857,1000.138,20.82,1000.136z M216.673,1022.57c-8.134,0-14.728,6.594-14.729,14.729
		c0.001,8.135,6.595,14.729,14.729,14.729s14.729-6.594,14.729-14.728c0-0.001,0-0.001,0-0.001
		C231.403,1029.164,224.809,1022.57,216.673,1022.57L216.673,1022.57z M126.109,1049.812c-4.85,0.001-8.782,3.933-8.783,8.783
		c0,4.852,3.932,8.784,8.783,8.784c4.851,0.001,8.784-3.932,8.784-8.782c0-0.001,0-0.002,0-0.002
		C134.893,1053.744,130.96,1049.812,126.109,1049.812z"/>
</g>
</svg>
